<svg xmlns="http://www.w3.org/2000/svg" xmlns:xlink="http://www.w3.org/1999/xlink" width="15" height="25" viewBox="0 0 15 25">
  <defs>
    <clipPath id="clip-path">
      <rect id="Rectangle_17549" data-name="Rectangle 17549" width="15" height="25" transform="translate(4.865 -1)" fill="#fff" stroke="#707070" stroke-width="1.5"/>
    </clipPath>
  </defs>
  <g id="_4" data-name="4" transform="translate(-4.865 1)" clip-path="url(#clip-path)">
    <g id="_9035524_ticket_outline_icon" data-name="9035524_ticket_outline_icon" transform="translate(-3.76 11.345) rotate(-45)">
      <path id="Path_8664" data-name="Path 8664" d="M16.817,5.648a2.322,2.322,0,0,1-.071-3.162.192.192,0,0,0-.007-.262L14.569.055a.194.194,0,0,0-.275,0L10.726,3.623a1.228,1.228,0,0,0-.292.465h0a1.234,1.234,0,0,1-.758.76h0a1.234,1.234,0,0,0-.466.292L.059,14.279a.194.194,0,0,0,0,.274L2.224,16.72a.193.193,0,0,0,.263.007,2.328,2.328,0,0,1,3.166.07,2.322,2.322,0,0,1,.071,3.163.192.192,0,0,0,.007.262L7.9,22.39a.2.2,0,0,0,.275,0l9.151-9.14a1.232,1.232,0,0,0,.292-.466h0a1.234,1.234,0,0,1,.758-.76h0a1.23,1.23,0,0,0,.466-.292L22.41,8.163a.194.194,0,0,0,0-.274L20.245,5.722a.193.193,0,0,0-.263-.007A2.329,2.329,0,0,1,16.817,5.648Z" transform="translate(0 0)" fill="none" stroke="#fff" stroke-miterlimit="10" stroke-width="1.5"/>
      <line id="Line_49" data-name="Line 49" x1="0.812" y1="0.811" transform="translate(10.238 4.651)" fill="none" stroke="#fff" stroke-linecap="round" stroke-miterlimit="10" stroke-width="1.5"/>
      <line id="Line_50" data-name="Line 50" x1="0.541" y1="0.54" transform="translate(12.673 7.083)" fill="none" stroke="#fff" stroke-linecap="round" stroke-miterlimit="10" stroke-width="1.5"/>
      <line id="Line_51" data-name="Line 51" x1="0.541" y1="0.541" transform="translate(14.837 9.245)" fill="none" stroke="#fff" stroke-linecap="round" stroke-miterlimit="10" stroke-width="1.5"/>
      <line id="Line_52" data-name="Line 52" x1="0.812" y1="0.811" transform="translate(17.002 11.406)" fill="none" stroke="#fff" stroke-linecap="round" stroke-miterlimit="10" stroke-width="1.5"/>
    </g>
  </g>
</svg>
