<svg xmlns="http://www.w3.org/2000/svg" xmlns:xlink="http://www.w3.org/1999/xlink" width="20" height="20" viewBox="0 0 20 20">
  <defs>
    <clipPath id="clip-path">
      <rect id="Rectangle_2998" data-name="Rectangle 2998" width="20" height="20" transform="translate(172 495)" fill="#fff" stroke="#707070" stroke-width="1"/>
    </clipPath>
  </defs>
  <g id="Mask_Group_36" data-name="Mask Group 36" transform="translate(-172 -495)" opacity="0.73" clip-path="url(#clip-path)">
    <g id="dish_x5F_spoon" transform="translate(172 497.498)">
      <path id="Path_66" data-name="Path 66" d="M11.234,5.5a6.022,6.022,0,1,0,6.022,6.022A6.029,6.029,0,0,0,11.234,5.5Zm0,11.726a5.7,5.7,0,1,1,5.7-5.7A5.71,5.71,0,0,1,11.234,17.227Z" transform="translate(-1.345 -3.843)"/>
      <path id="Path_67" data-name="Path 67" d="M11.234,6.627a4.9,4.9,0,1,0,4.9,4.9A4.9,4.9,0,0,0,11.234,6.627Zm0,9.473a4.577,4.577,0,1,1,4.577-4.577A4.582,4.582,0,0,1,11.234,16.1Z" transform="translate(-1.345 -3.843)"/>
      <path id="Path_68" data-name="Path 68" d="M21.345,6.246c0-1.325-.809-2.4-1.8-2.4s-1.8,1.078-1.8,2.4a2.242,2.242,0,0,0,1.644,2.393v1.729H19v8.264h1.078V10.368H19.7V8.638A2.242,2.242,0,0,0,21.345,6.246Zm-1.583,4.441v7.626h-.439V10.687Zm-.22-2.357c-.818,0-1.484-.935-1.484-2.084s.666-2.084,1.484-2.084,1.484.935,1.484,2.084S20.36,8.329,19.542,8.329Z" transform="translate(-1.345 -3.843)"/>
      <path id="Path_69" data-name="Path 69" d="M4.31,7.222A1.325,1.325,0,0,1,3.147,8.535V4.359H2.828V8.535A1.325,1.325,0,0,1,1.664,7.222V4.359H1.345V7.222A1.644,1.644,0,0,0,2.828,8.856v1.727H2.448v8.264H3.526V10.583H3.147V8.856A1.644,1.644,0,0,0,4.629,7.222V4.359H4.31V7.222Zm-1.1,3.68v7.626H2.767V10.9Z" transform="translate(-1.345 -3.843)"/>
    </g>
  </g>
</svg>
