<svg xmlns="http://www.w3.org/2000/svg" xmlns:xlink="http://www.w3.org/1999/xlink" width="20" height="20" viewBox="0 0 20 20">
  <defs>
    <clipPath id="clip-path">
      <rect id="Rectangle_2997" data-name="Rectangle 2997" width="20" height="20" transform="translate(182 462)" fill="#fff" stroke="#707070" stroke-width="1"/>
    </clipPath>
  </defs>
  <g id="Mask_Group_37" data-name="Mask Group 37" transform="translate(-182 -462)" opacity="0.73" clip-path="url(#clip-path)">
    <g id="tour" transform="translate(182 462.353)">
      <path id="Path_70" data-name="Path 70" d="M16.43-19.615A2.5,2.5,0,0,0,14.6-17.954a2.636,2.636,0,0,0,.027,1.454,21.282,21.282,0,0,0,1.758,3.892c.535.895.672.8,1.68-1.223a15.1,15.1,0,0,0,1.157-2.829A2.348,2.348,0,0,0,17.97-19.4a3.064,3.064,0,0,0-.6-.215A3.172,3.172,0,0,0,16.43-19.615Zm1.043.742a2,2,0,0,1,.75.527,1.725,1.725,0,0,1-.109,2.309,1.718,1.718,0,0,1-2.841-.68,2.039,2.039,0,0,1-.012-1.039A1.759,1.759,0,0,1,16.4-18.888,1.9,1.9,0,0,1,17.473-18.872Z" transform="translate(0 19.648)"/>
      <path id="Path_71" data-name="Path 71" d="M16.583-18.216a1.022,1.022,0,0,0-.684.77,1.042,1.042,0,0,0,1,1.231,1.048,1.048,0,0,0,.953-.649,1,1,0,0,0-.207-1.09A1,1,0,0,0,16.583-18.216Z" transform="translate(0 19.648)"/>
      <path id="Path_72" data-name="Path 72" d="M3.341-14.121a3.982,3.982,0,0,0-2.165,1.047,3.511,3.511,0,0,0-.8,1.125,3.286,3.286,0,0,0-.348,1.555,2.905,2.905,0,0,0,.109.918A29.006,29.006,0,0,0,2.977-3.138c.262.438.336.535.485.621a.518.518,0,0,0,.387.086c.313-.027.422-.133.809-.781A26.247,26.247,0,0,0,7.545-9.9a4.228,4.228,0,0,0-.063-1.328,3.821,3.821,0,0,0-2.813-2.8A5.244,5.244,0,0,0,3.341-14.121Zm1.344,1.168a2.791,2.791,0,0,1,1.754,1.836A3.091,3.091,0,0,1,6.474-9.69a2.821,2.821,0,0,1-1.454,1.8A2.46,2.46,0,0,1,3.79-7.6a2.538,2.538,0,0,1-1.918-.8,2.424,2.424,0,0,1-.809-1.805,2.519,2.519,0,0,1,.3-1.411,2.748,2.748,0,0,1,1.735-1.395A3.234,3.234,0,0,1,4.685-12.953Z" transform="translate(0 19.648)"/>
      <path id="Path_73" data-name="Path 73" d="M3.36-12.363a2.005,2.005,0,0,0-.992.539A1.908,1.908,0,0,0,1.836-11,2,2,0,0,0,2.36-8.889,1.887,1.887,0,0,0,3.907-8.3,2.049,2.049,0,0,0,5.24-11.8a2.129,2.129,0,0,0-1.075-.578A1.758,1.758,0,0,0,3.36-12.363Z" transform="translate(0 19.648)"/>
      <path id="Path_74" data-name="Path 74" d="M15.2-12.691a1.24,1.24,0,0,0-.7.965c0,.512.6,1.032,1.465,1.258a4.464,4.464,0,0,0,1.493.078c1.1-.172,1.848-.711,1.848-1.325a.867.867,0,0,0-.289-.656,2.359,2.359,0,0,0-.653-.445,3.386,3.386,0,0,0-.3.469c-.418.738-.672.949-1.16.946s-.746-.215-1.157-.953a2.2,2.2,0,0,0-.293-.457A1.335,1.335,0,0,0,15.2-12.691Z" transform="translate(0 19.648)"/>
      <path id="Path_75" data-name="Path 75" d="M10.878-12.034a.382.382,0,0,0-.211.285.543.543,0,0,0,.059.184c.082.156.274.207.731.191.336-.016.387-.027.477-.109a.333.333,0,0,0-.082-.543A3,3,0,0,0,10.878-12.034Z" transform="translate(0 19.648)"/>
      <path id="Path_76" data-name="Path 76" d="M12.953-12.027a.333.333,0,0,0-.082.527c.09.1.113.109.414.109s.324-.008.414-.109a.314.314,0,0,0-.02-.461c-.105-.1-.137-.113-.383-.113A1.046,1.046,0,0,0,12.953-12.027Z" transform="translate(0 19.648)"/>
      <path id="Path_77" data-name="Path 77" d="M9.456-11.417a1.449,1.449,0,0,0-.391.742.327.327,0,0,0,.617.16,4.4,4.4,0,0,1,.234-.375c.223-.336.219-.543-.02-.668C9.741-11.644,9.643-11.612,9.456-11.417Z" transform="translate(0 19.648)"/>
      <path id="Path_78" data-name="Path 78" d="M9.432-9.651a.347.347,0,0,0-.168.481,1.462,1.462,0,0,0,.8.653.383.383,0,0,0,.332-.348c0-.117-.02-.141-.457-.563C9.663-9.686,9.592-9.717,9.432-9.651Z" transform="translate(0 19.648)"/>
      <path id="Path_79" data-name="Path 79" d="M11.3-8.944a.33.33,0,0,0-.145.559c.1.1.117.1.582.1s.481,0,.582-.1a.329.329,0,0,0-.164-.563A2.517,2.517,0,0,0,11.3-8.944Z" transform="translate(0 19.648)"/>
      <path id="Path_80" data-name="Path 80" d="M13.375-8.944a.334.334,0,0,0-.1.582c.086.066.16.078.559.078.442,0,.461,0,.563-.1a.332.332,0,0,0-.168-.563A2.494,2.494,0,0,0,13.375-8.944Z" transform="translate(0 19.648)"/>
      <path id="Path_81" data-name="Path 81" d="M15.508-8.959a.34.34,0,0,0-.172.578c.09.094.117.1.555.1.5,0,.606-.035.68-.223a.374.374,0,0,0-.129-.4A2.888,2.888,0,0,0,15.508-8.959Z" transform="translate(0 19.648)"/>
      <path id="Path_82" data-name="Path 82" d="M17.372-8.577a.294.294,0,0,0-.1.246c0,.176.078.262.371.41a3.252,3.252,0,0,1,.313.18.353.353,0,0,0,.582-.25c0-.184-.148-.328-.567-.539C17.645-8.7,17.516-8.709,17.372-8.577Z" transform="translate(0 19.648)"/>
      <path id="Path_83" data-name="Path 83" d="M18.919-7.228c-.156.145-.148.238.066.68a2.208,2.208,0,0,0,.289.473.316.316,0,0,0,.477-.141.268.268,0,0,0,.016-.262,3.159,3.159,0,0,0-.387-.75A.375.375,0,0,0,18.919-7.228Z" transform="translate(0 19.648)"/>
      <path id="Path_84" data-name="Path 84" d="M19.509-5.3a.268.268,0,0,0-.164.207,5.912,5.912,0,0,0-.121.817.335.335,0,0,0,.332.289c.266,0,.367-.2.43-.844.027-.254.02-.281-.063-.379A.332.332,0,0,0,19.509-5.3Z" transform="translate(0 19.648)"/>
      <path id="Path_85" data-name="Path 85" d="M18.485-3.079c-.219.227-.324.363-.34.453a.334.334,0,0,0,.4.383A2.348,2.348,0,0,0,19.283-3a.383.383,0,0,0-.156-.375.805.805,0,0,0-.2-.023C18.818-3.4,18.755-3.352,18.485-3.079Z" transform="translate(0 19.648)"/>
      <path id="Path_86" data-name="Path 86" d="M1.817-2.989a3.78,3.78,0,0,0-1.454.637A.934.934,0,0,0,0-1.758.939.939,0,0,0,.379-1.2C1.6-.309,4.368-.078,6.232-.715c.711-.246,1.274-.641,1.328-.938a.585.585,0,0,0-.231-.594A3.1,3.1,0,0,0,5.845-2.97a2.142,2.142,0,0,0-.457-.094,3.026,3.026,0,0,0-.227.363,1.746,1.746,0,0,1-.778.832.979.979,0,0,1-.594.129c-.6,0-.93-.234-1.348-.946a2.724,2.724,0,0,0-.254-.4C2.176-3.083,2.012-3.04,1.817-2.989Z" transform="translate(0 19.648)"/>
      <path id="Path_87" data-name="Path 87" d="M16.958-2.165a1.378,1.378,0,0,1-.266.051c-.383.016-.563.414-.285.633.086.07.137.078.332.059a3.2,3.2,0,0,0,.5-.1c.219-.066.281-.1.328-.2a.3.3,0,0,0,.016-.324C17.5-2.223,17.294-2.262,16.958-2.165Z" transform="translate(0 19.648)"/>
      <path id="Path_88" data-name="Path 88" d="M8.494-2.032a.33.33,0,0,0-.117.527.737.737,0,0,0,.828.016.333.333,0,0,0-.09-.535A1.235,1.235,0,0,0,8.494-2.032Z" transform="translate(0 19.648)"/>
      <path id="Path_89" data-name="Path 89" d="M10.194-2.012a.337.337,0,0,0,.043.6,2.7,2.7,0,0,0,.938,0,.334.334,0,0,0,.035-.6A2.23,2.23,0,0,0,10.194-2.012Z" transform="translate(0 19.648)"/>
      <path id="Path_90" data-name="Path 90" d="M12.288-2.024a.339.339,0,0,0-.074.543c.09.082.141.094.477.109a2.307,2.307,0,0,0,.524-.031.336.336,0,0,0,.141-.574c-.066-.063-.156-.074-.535-.086A1.586,1.586,0,0,0,12.288-2.024Z" transform="translate(0 19.648)"/>
      <path id="Path_91" data-name="Path 91" d="M14.394-2.036a.34.34,0,0,0-.117.539c.094.109.1.109.59.109s.5,0,.59-.109a.319.319,0,0,0-.008-.461c-.094-.086-.133-.094-.535-.1A2.564,2.564,0,0,0,14.394-2.036Z" transform="translate(0 19.648)"/>
    </g>
  </g>
</svg>
