<svg xmlns="http://www.w3.org/2000/svg" width="25.439" height="31.242" viewBox="0 0 25.439 31.242">
  <path id="Icon_metro-apple" data-name="Icon metro-apple" d="M26.682,18.528a7.068,7.068,0,0,1,3.373-5.948,7.3,7.3,0,0,0-5.713-3.1c-2.433-.246-4.747,1.432-5.982,1.432s-3.137-1.4-5.155-1.359a7.644,7.644,0,0,0-6.462,3.917c-2.755,4.781-.706,11.863,1.98,15.741,1.312,1.9,2.877,4.03,4.931,3.953,1.978-.079,2.726-1.28,5.118-1.28s3.064,1.28,5.158,1.241c2.129-.04,3.478-1.934,4.781-3.838a17.221,17.221,0,0,0,2.164-4.443,6.9,6.9,0,0,1-4.192-6.32ZM22.749,6.917a6.885,6.885,0,0,0,1.626-4.989,7,7,0,0,0-4.6,2.366,6.55,6.55,0,0,0-1.659,4.834A5.794,5.794,0,0,0,22.749,6.917Z" transform="translate(-5.436 -1.928)"/>
</svg>
