<svg xmlns="http://www.w3.org/2000/svg" width="25.732" height="24.654" viewBox="0 0 25.732 24.654">
  <g id="Icon_feather-shopping-cart" data-name="Icon feather-shopping-cart" transform="translate(1 1)">
    <path id="Path_8646" data-name="Path 8646" d="M15.3,31.652A1.652,1.652,0,1,1,13.652,30,1.652,1.652,0,0,1,15.3,31.652Z" transform="translate(-4.85 -10.649)" fill="none" stroke="#fff" stroke-linecap="round" stroke-linejoin="round" stroke-width="2"/>
    <path id="Path_8647" data-name="Path 8647" d="M31.8,31.652A1.652,1.652,0,1,1,30.152,30,1.651,1.651,0,0,1,31.8,31.652Z" transform="translate(-11.374 -10.649)" fill="none" stroke="#fff" stroke-linecap="round" stroke-linejoin="round" stroke-width="2"/>
    <path id="Path_8648" data-name="Path 8648" d="M1.5,1.5H5.815L8.706,16.109a2.163,2.163,0,0,0,2.157,1.757H21.349a2.163,2.163,0,0,0,2.157-1.757l1.726-9.154H6.894" transform="translate(-1.5 -1.5)" fill="none" stroke="#fff" stroke-linecap="round" stroke-linejoin="round" stroke-width="2"/>
  </g>
</svg>
