<svg xmlns="http://www.w3.org/2000/svg" width="18" height="22.513" viewBox="0 0 18 22.513">
  <g id="Icon_ionic-ios-notifications" data-name="Icon ionic-ios-notifications" transform="translate(-6.761 -3.93)">
    <path id="Path_8591" data-name="Path 8591" d="M17.993,32.063c2.187,0,3.382-1.547,3.382-3.727H14.6C14.6,30.516,15.8,32.063,17.993,32.063Z" transform="translate(-2.241 -5.619)" fill="#454554"/>
    <path id="Path_8592" data-name="Path 8592" d="M24.533,19.69c-.867-1.08-2.571-1.713-2.571-6.547,0-4.962-2.318-6.957-4.479-7.435-.2-.048-.349-.112-.349-.314V5.239a1.375,1.375,0,0,0-2.746,0v.154c0,.2-.146.266-.349.314C11.873,6.191,9.56,8.18,9.56,13.142c0,4.835-1.7,5.462-2.571,6.547a1.053,1.053,0,0,0,.895,1.691H23.644A1.053,1.053,0,0,0,24.533,19.69Z" transform="translate(0 0)" fill="#454554"/>
  </g>
</svg>
