<svg xmlns="http://www.w3.org/2000/svg" xmlns:xlink="http://www.w3.org/1999/xlink" width="20" height="20" viewBox="0 0 20 20">
  <defs>
    <clipPath id="clip-path">
      <rect id="Rectangle_2996" data-name="Rectangle 2996" width="20" height="20" transform="translate(182 437)" fill="#fff" stroke="#707070" stroke-width="1"/>
    </clipPath>
  </defs>
  <g id="Mask_Group_38" data-name="Mask Group 38" transform="translate(-182 -437)" opacity="0.73" clip-path="url(#clip-path)">
    <g id="networking" transform="translate(182.001 437)">
      <path id="Path_92" data-name="Path 92" d="M1.329-19.972a1.75,1.75,0,0,0-1.157.915,1.661,1.661,0,0,0,1,2.295,1.322,1.322,0,0,0,.563.063l.348-.012.446.934c.246.516.446.95.446.966a1.023,1.023,0,0,1-.231.192,3.945,3.945,0,0,0-1.724,3.245A4.022,4.022,0,0,0,2.607-8.131l.164.137-.3.536c-.223.4-.317.532-.36.516a1.536,1.536,0,0,0-.332-.043A1.647,1.647,0,0,0,.031-5.578,1.679,1.679,0,0,0,.9-3.87a1.659,1.659,0,0,0,2.345-.962,1.309,1.309,0,0,0,.07-.6A1.448,1.448,0,0,0,2.928-6.4a.879.879,0,0,1-.152-.215,8.075,8.075,0,0,1,.614-1.063c.016,0,.16.055.317.106a4.145,4.145,0,0,0,2.275.106A4.9,4.9,0,0,0,7.2-8.01c.094-.063.188-.121.207-.129A15.038,15.038,0,0,1,8.717-6.728a.5.5,0,0,1-.113.168,4.192,4.192,0,0,0-.919,2.846l.027.3-.152.043c-.242.063-1.329.317-1.356.317a1.277,1.277,0,0,1-.168-.215,1.546,1.546,0,0,0-1.259-.715,1.564,1.564,0,0,0-1.442.672A1.656,1.656,0,0,0,4.429-.7,1.657,1.657,0,0,0,6.305-2.1c.043-.285.047-.293.184-.328.324-.086,1.3-.313,1.349-.313.027,0,.074.066.1.149a4.078,4.078,0,0,0,.2.438A3.983,3.983,0,0,0,13.189-.309,4.052,4.052,0,0,0,15.57-3.088a3.292,3.292,0,0,0,.082-.88A3.686,3.686,0,0,0,15.3-5.684c-.055-.106-.082-.2-.063-.219.039-.039,1.751-1.157,1.853-1.216.059-.031.109-.012.254.1a1.621,1.621,0,0,0,.942.328,1.56,1.56,0,0,0,1.255-.5,1.656,1.656,0,0,0-.946-2.783A1.669,1.669,0,0,0,16.751-8.8a2.224,2.224,0,0,0-.012.977c.012.125,0,.133-.946.751l-.958.622-.2-.219a4.492,4.492,0,0,0-1.016-.813.764.764,0,0,1-.254-.184c0-.051,1.568-4.421,1.6-4.456.012-.016.082-.012.156.008a4.232,4.232,0,0,0,.528.082,3.981,3.981,0,0,0,3.233-1.208,3.969,3.969,0,0,0,.031-5.5,3.977,3.977,0,0,0-5.645-.18,5.075,5.075,0,0,0-.766.989c-.094.164-.145.219-.192.2s-.266-.094-.512-.188l-.45-.168-.008-.172a2.356,2.356,0,0,0-.207-.86,1.68,1.68,0,0,0-1.72-.868,1.674,1.674,0,0,0-1.353,1.22A1.683,1.683,0,0,0,9.061-16.8a1.416,1.416,0,0,0,.633.09,1.088,1.088,0,0,0,.668-.125,2.023,2.023,0,0,0,.668-.551l.059-.086.524.2c.285.109.524.2.532.211a1.222,1.222,0,0,1-.055.281,4.37,4.37,0,0,0,.023,1.669,1.883,1.883,0,0,1,.074.36c-.027.023-3.639,1.548-3.647,1.536s-.09-.141-.192-.293A3.969,3.969,0,0,0,5-15.328a3.829,3.829,0,0,0-1.22.184.322.322,0,0,1-.192.027c-.035-.035-.9-1.837-.9-1.872a1.422,1.422,0,0,1,.184-.227,1.588,1.588,0,0,0,.434-1.044,1.4,1.4,0,0,0-.051-.547A1.67,1.67,0,0,0,1.329-19.972Zm.77.735a.966.966,0,0,1,.551.848.948.948,0,0,1-.559.938,1,1,0,0,1-1.313-.461.992.992,0,0,1,.946-1.423A1.1,1.1,0,0,1,2.1-19.237Zm8.01,0a1,1,0,0,1,.262,1.595.786.786,0,0,1-.7.27.765.765,0,0,1-.493-.106,1,1,0,0,1,.238-1.833A1.209,1.209,0,0,1,10.109-19.241Zm6.731,0a3.328,3.328,0,0,1,2.193,1.849,2.85,2.85,0,0,1,.293,1.419,2.447,2.447,0,0,1-.109.86A3.749,3.749,0,0,1,18.67-14l-.137.168-.117-.227a2.467,2.467,0,0,0-1.048-1.04l-.164-.078.109-.141a1.66,1.66,0,0,0-1.548-2.662A1.672,1.672,0,0,0,14.358-16.2a1.571,1.571,0,0,0,.3.8l.152.223-.207.109a2.532,2.532,0,0,0-.989.989c-.059.113-.121.2-.145.2a3.135,3.135,0,0,1-.528-.84,3.082,3.082,0,0,1-.242-1.278,3,3,0,0,1,.25-1.3,3.366,3.366,0,0,1,2.56-2A4.318,4.318,0,0,1,16.84-19.237Zm-.422,1.982a1.019,1.019,0,0,1,.321,1.595,1.039,1.039,0,0,1-1.493-.047,1,1,0,0,1,.246-1.493A1.079,1.079,0,0,1,16.418-17.255ZM5.684-14.6a3.353,3.353,0,0,1,2.51,2.287,2.3,2.3,0,0,1,.109.938,2.581,2.581,0,0,1-.086.915,3.893,3.893,0,0,1-.571,1.141l-.129.152-.129-.254a2.775,2.775,0,0,0-.966-.973.68.68,0,0,1-.207-.125.489.489,0,0,1,.1-.145,2.037,2.037,0,0,0,.207-.348,1.193,1.193,0,0,0,.106-.657,1.131,1.131,0,0,0-.145-.727,1.653,1.653,0,0,0-2.3-.723,1.689,1.689,0,0,0-.817,1.7,1.447,1.447,0,0,0,.293.711c.152.215.16.231.082.231a2.75,2.75,0,0,0-.829.606,3.37,3.37,0,0,0-.3.45l-.129.242-.125-.152a4.064,4.064,0,0,1-.559-1.13,2.581,2.581,0,0,1-.086-.915,2.3,2.3,0,0,1,.109-.938A3.37,3.37,0,0,1,4.3-14.6,4.324,4.324,0,0,1,5.684-14.6Zm11.3.055a1.491,1.491,0,0,1,.493.352,1.492,1.492,0,0,1,.461.719c.039.145.039.145-.133.266a3.144,3.144,0,0,1-1.794.516,3.055,3.055,0,0,1-1.669-.446c-.313-.184-.321-.215-.152-.571a1.671,1.671,0,0,1,1-.88,2.376,2.376,0,0,1,.88-.059A2.158,2.158,0,0,1,16.981-14.546Zm-4.3.747a4.427,4.427,0,0,0,1.525,1.356c.1.047.133.086.113.125s-.364,1-.778,2.154-.774,2.138-.794,2.193l-.043.106-.246-.051a3.932,3.932,0,0,0-2.916.539c-.156.1-.293.184-.3.184S8.936-7.513,8.58-7.9l-.645-.711.1-.121a5.559,5.559,0,0,0,.641-1.032,3.382,3.382,0,0,0,.3-1.435,4.055,4.055,0,0,0-.149-1.341,12.4,12.4,0,0,1,1.8-.829c1-.422,1.829-.762,1.841-.747S12.583-13.959,12.685-13.8Zm-7.29,1.216a.92.92,0,0,1,.493.485,1,1,0,0,1-.637,1.384.8.8,0,0,1-.555-.02,1,1,0,0,1-.633-1.282A1.026,1.026,0,0,1,5.395-12.583Zm.324,2.635A1.5,1.5,0,0,1,6.5-9.5a1.463,1.463,0,0,1,.43.754c.012.1-.012.125-.309.3a3.064,3.064,0,0,1-1.81.418,2.884,2.884,0,0,1-1.2-.3c-.4-.188-.555-.3-.555-.387a1.5,1.5,0,0,1,.137-.344,1.7,1.7,0,0,1,1.095-.9A4.927,4.927,0,0,1,5.719-9.949ZM18.7-9.265a1,1,0,0,1,.536,1.36.969.969,0,0,1-.848.547.939.939,0,0,1-.93-.547.992.992,0,0,1,.59-1.384A.9.9,0,0,1,18.7-9.265ZM12.509-7.228a3.3,3.3,0,0,1,2.185,1.841,2.841,2.841,0,0,1,.293,1.419,2.76,2.76,0,0,1-.313,1.4,4.267,4.267,0,0,1-.469.731,2.008,2.008,0,0,1-.137-.242,2.99,2.99,0,0,0-.985-.981l-.223-.109.133-.176a1.449,1.449,0,0,0,.313-.993,1.441,1.441,0,0,0-.344-1.028,1.658,1.658,0,0,0-2.24-.328,1.8,1.8,0,0,0-.6.758,1.337,1.337,0,0,0-.09.6,1.449,1.449,0,0,0,.313.993l.133.176-.223.109A3,3,0,0,0,9.28-2.1c-.063.125-.129.223-.152.215A3,3,0,0,1,8.6-2.721a3.413,3.413,0,0,1,0-2.56A3.453,3.453,0,0,1,10.433-7.1a4.881,4.881,0,0,1,.942-.231A4.451,4.451,0,0,1,12.509-7.228ZM1.99-6.274a1,1,0,0,1,.543.446.765.765,0,0,1,.106.493.786.786,0,0,1-.27.7A1,1,0,0,1,.77-4.9a1.1,1.1,0,0,1,0-.864A1.006,1.006,0,0,1,1.99-6.274ZM12.146-5.2a.886.886,0,0,1,.5.864.867.867,0,0,1-.317.743.907.907,0,0,1-.661.242.909.909,0,0,1-.676-.258.992.992,0,0,1,.219-1.607A1.048,1.048,0,0,1,12.146-5.2ZM5.113-3.221a.991.991,0,0,1-.152,1.829.743.743,0,0,1-.579,0,1.031,1.031,0,0,1-.708-.919A1,1,0,0,1,5.113-3.221Zm7.552.7a1.74,1.74,0,0,1,.93,1.075l.039.145-.281.156a2.846,2.846,0,0,1-1.7.453A2.425,2.425,0,0,1,10.777-.8c-.559-.168-1.044-.442-1.044-.586a1.831,1.831,0,0,1,.395-.747,1.726,1.726,0,0,1,.719-.457,2.417,2.417,0,0,1,.88-.063C12.4-2.639,12.415-2.639,12.666-2.517Z" transform="translate(-0.011 20.008)"/>
    </g>
  </g>
</svg>
