<svg xmlns="http://www.w3.org/2000/svg" width="15.2" height="19" viewBox="0 0 15.2 19">
  <path id="Path_8674" data-name="Path 8674" d="M4,11.5a.475.475,0,0,0,.475.475h8.353l-2.514,2.514a.475.475,0,1,0,.672.672l3.325-3.325h0a.475.475,0,0,0,0-.672L10.986,7.839a.475.475,0,0,0-.672.672l2.514,2.514H4.475A.475.475,0,0,0,4,11.5ZM16.825,2H6.375A2.377,2.377,0,0,0,4,4.375v3.8a.475.475,0,1,0,.95,0v-3.8A1.427,1.427,0,0,1,6.375,2.95h10.45A1.427,1.427,0,0,1,18.25,4.375v14.25a1.427,1.427,0,0,1-1.425,1.425H6.375A1.427,1.427,0,0,1,4.95,18.625v-3.8a.475.475,0,0,0-.95,0v3.8A2.377,2.377,0,0,0,6.375,21h10.45A2.377,2.377,0,0,0,19.2,18.625V4.375A2.377,2.377,0,0,0,16.825,2Z" transform="translate(-4 -2)" fill="#454554"/>
</svg>
