<svg xmlns="http://www.w3.org/2000/svg" xmlns:xlink="http://www.w3.org/1999/xlink" width="20" height="20" viewBox="0 0 20 20">
  <defs>
    <clipPath id="clip-path">
      <rect id="Rectangle_2999" data-name="Rectangle 2999" width="20" height="20" transform="translate(198 502)" fill="#fff" stroke="#707070" stroke-width="1"/>
    </clipPath>
  </defs>
  <g id="Mask_Group_39" data-name="Mask Group 39" transform="translate(-198 -502)" opacity="0.73" clip-path="url(#clip-path)">
    <g id="vip" transform="translate(198.353 502)">
      <path id="Path_93" data-name="Path 93" d="M3.917-19.937a1.615,1.615,0,0,0-.992.734c-.289.445-.269-.184-.269,8.986v8.225H1.886c-.726,0-.785.008-.969.094A.943.943,0,0,0,.351-1a.967.967,0,0,0,.66.941C1.164-.008,2.195,0,10,0s8.834-.008,8.986-.059A1.014,1.014,0,0,0,19.6-1.332a1.024,1.024,0,0,0-.516-.566c-.187-.086-.242-.094-.969-.094H17.34v-8.225c0-9.17.02-8.541-.269-8.986a1.6,1.6,0,0,0-1.008-.734C15.735-20.023,4.233-20.019,3.917-19.937Zm12.064.668a1.068,1.068,0,0,1,.586.516l.09.184.012,8.287.008,8.291h-.664v-8.162c0-8.9.012-8.389-.215-8.475-.141-.055-11.458-.055-11.6,0-.227.086-.215-.426-.215,8.475v8.162H3.32l.008-8.291.012-8.287.09-.184A1.11,1.11,0,0,1,4-19.269c.137-.047.984-.059,5.983-.059C15.149-19.332,15.825-19.324,15.981-19.269ZM15.329-10v7.987H4.667L4.655-9.959c0-4.37,0-7.971.012-8S5.768-18,10.006-18l5.323.012ZM18.883-1.23a.345.345,0,0,1,.023.453l-.074.094H1.164L1.09-.777a.345.345,0,0,1,.023-.453l.094-.1H18.789Z" transform="translate(-0.351 20)"/>
      <path id="Path_94" data-name="Path 94" d="M6.561-17.313a.348.348,0,0,0-.215.25c-.02.09.07.309.5,1.176a11.618,11.618,0,0,0,.6,1.136.376.376,0,0,0,.394.031,13.308,13.308,0,0,0,1.14-2.289.308.308,0,0,0-.461-.277c-.1.051-.187.2-.488.793l-.371.73-.351-.707C6.9-17.277,6.8-17.4,6.561-17.313Z" transform="translate(-0.351 20)"/>
      <path id="Path_95" data-name="Path 95" d="M9.545-17.3a.382.382,0,0,0-.211.328c0,.117.152.3.254.3.051,0,.059.094.059.683,0,.648,0,.683-.074.683-.1,0-.238.18-.238.316a.412.412,0,0,0,.094.219c.094.109.1.109.57.109s.476,0,.57-.109a.412.412,0,0,0,.094-.219c0-.137-.137-.316-.238-.316-.07,0-.074-.035-.074-.683,0-.59.008-.683.059-.683a.3.3,0,0,0,.156-.1.3.3,0,0,0,0-.437c-.09-.105-.109-.109-.519-.117A2.182,2.182,0,0,0,9.545-17.3Z" transform="translate(-0.351 20)"/>
      <path id="Path_96" data-name="Path 96" d="M11.537-17.3c-.2.09-.211.137-.211,1.281a9.5,9.5,0,0,0,.039,1.164.366.366,0,0,0,.371.184c.156-.027.234-.152.254-.414l.02-.238.332-.02A.889.889,0,0,0,13.1-15.7a.954.954,0,0,0,.207-.734.817.817,0,0,0-.266-.586c-.238-.242-.394-.289-.933-.3A2.713,2.713,0,0,0,11.537-17.3Zm1.019.746a.3.3,0,0,1,0,.449c-.078.082-.133.1-.332.1H11.99v-.672l.234.016A.47.47,0,0,1,12.556-16.559Z" transform="translate(-0.351 20)"/>
      <path id="Path_97" data-name="Path 97" d="M9.744-13.938c-.187.109-.281.254-.629.941-.324.644-.375.73-.473.75-.059.012-.433.066-.832.121-.777.109-.9.152-1.043.371a.626.626,0,0,0-.035.582,7.316,7.316,0,0,0,.652.683l.594.578-.141.832c-.148.867-.148.961-.008,1.179a.676.676,0,0,0,.562.227,7.675,7.675,0,0,0,.875-.4L10-8.455l.738.379a6.107,6.107,0,0,0,.887.4.593.593,0,0,0,.6-.34l.09-.187-.145-.855-.148-.851.594-.582a7.682,7.682,0,0,0,.652-.687.618.618,0,0,0-.035-.578c-.144-.219-.266-.262-1.043-.371-.4-.055-.773-.109-.832-.121-.1-.02-.148-.105-.473-.75-.433-.863-.512-.953-.832-.972A.761.761,0,0,0,9.744-13.938Zm.644,1.429a4,4,0,0,0,.473.8,2.99,2.99,0,0,0,.859.187c.418.062.785.113.816.113a3.381,3.381,0,0,1-.535.578c-.473.457-.6.605-.633.722a2.773,2.773,0,0,0,.094.918c.074.422.129.769.125.777s-.34-.156-.742-.359A4.225,4.225,0,0,0,10-9.139a4.126,4.126,0,0,0-.847.371c-.4.207-.73.367-.738.359s.047-.355.121-.777a2.658,2.658,0,0,0,.094-.918c-.035-.117-.164-.266-.633-.722a4.4,4.4,0,0,1-.551-.578c.144,0,1.461-.207,1.566-.238.184-.059.269-.184.637-.926A6.037,6.037,0,0,1,10-13.239C10.01-13.239,10.185-12.911,10.388-12.509Z" transform="translate(-0.351 20)"/>
      <path id="Path_98" data-name="Path 98" d="M14.11-9.9c-.109.094-.109.1-.121.637-.016.633.02.8.191.894a.276.276,0,0,0,.254.016.333.333,0,0,0,.172-.117,3.652,3.652,0,0,0,.039-.7c0-.617,0-.629-.1-.722A.3.3,0,0,0,14.11-9.9Z" transform="translate(-0.351 20)"/>
    </g>
  </g>
</svg>
